<svg xmlns="http://www.w3.org/2000/svg" xmlns:xlink="http://www.w3.org/1999/xlink" width="500" zoomAndPan="magnify" viewBox="0 0 375 374.999991" height="500" preserveAspectRatio="xMidYMid meet" version="1.0"><defs><g/><clipPath id="489fd7bacb"><path d="M 102 92.742188 L 272 92.742188 L 272 282 L 102 282 Z M 102 92.742188 " clip-rule="nonzero"/></clipPath><clipPath id="80d0556ef4"><rect x="0" width="313" y="0" height="105"/></clipPath><clipPath id="753b512e8a"><rect x="0" width="105" y="0" height="20"/></clipPath></defs><rect x="-37.5" width="450" fill="#ffffff" y="-37.499999" height="449.999989" fill-opacity="1"/><rect x="-37.5" width="450" fill="#000000" y="-37.499999" height="449.999989" fill-opacity="1"/><g clip-path="url(#489fd7bacb)"><path fill="#795b4b" d="M 160.691406 280.5 C 147.324219 277.949219 136.34375 273.78125 126.660156 267.585938 C 119.269531 262.859375 109.203125 252.988281 106.742188 248.058594 C 103.234375 241.042969 105.617188 237.195312 111.542969 240.296875 C 112.652344 240.875 116.894531 244.519531 120.964844 248.390625 C 130.957031 257.898438 138.773438 263.605469 147.765625 267.957031 C 159.875 273.816406 167.851562 275.566406 182.941406 275.671875 C 197.078125 275.769531 204.699219 274.355469 213.46875 270.003906 C 220.46875 266.53125 222.25 264.53125 222.277344 260.121094 C 222.351562 245.738281 244.359375 225.363281 259.816406 225.363281 C 264.21875 225.363281 265.324219 225.734375 267.566406 227.980469 C 275.214844 235.628906 271.980469 250.171875 259.832031 262.746094 C 250.316406 272.59375 240.167969 276.121094 230.285156 273.015625 L 225.183594 271.410156 L 214.863281 274.851562 C 209.1875 276.742188 202.179688 278.890625 199.292969 279.621094 C 191.789062 281.523438 168.808594 282.046875 160.691406 280.5 Z M 248.519531 266.769531 C 256.476562 262.789062 266.65625 249.761719 266.65625 243.566406 C 266.65625 242.53125 265.453125 244.121094 263.914062 247.183594 C 259.988281 255.011719 251.363281 263.699219 244.238281 267.007812 C 239.585938 269.171875 239.082031 269.589844 241.679688 269.136719 C 243.460938 268.828125 246.539062 267.761719 248.519531 266.769531 Z M 177.390625 252.429688 C 167.527344 251.539062 158.0625 248.5 150.375 243.746094 C 145.796875 240.917969 147.1875 240.703125 152.96875 243.347656 C 165.285156 248.984375 183.445312 250.578125 196.355469 247.15625 C 202.113281 245.628906 214.613281 240.070312 219.480469 236.867188 C 220.753906 236.03125 219.917969 237.054688 217.628906 239.144531 C 207.996094 247.933594 190.742188 253.628906 177.390625 252.429688 Z M 260.265625 157.917969 C 259.292969 156.945312 255.414062 151.429688 251.652344 145.660156 C 247.886719 139.890625 242.410156 132.589844 239.484375 129.433594 C 224.0625 112.800781 202.644531 103.292969 180.628906 103.300781 C 166.359375 103.304688 160.289062 105.472656 160.265625 110.570312 C 160.257812 112.761719 159.484375 113.25 151.324219 116.203125 C 140.8125 120.003906 131.1875 126.066406 122.566406 134.3125 C 116.433594 140.183594 114.949219 141.15625 114.949219 139.320312 C 114.949219 137.414062 130.546875 123.027344 136.492188 119.445312 C 139.871094 117.410156 142.652344 115.226562 142.667969 114.589844 C 142.714844 112.9375 142.511719 113.011719 135.128906 117.363281 C 131.351562 119.589844 124.871094 124.824219 120.175781 129.433594 C 115.144531 134.378906 111.5625 137.242188 111.046875 136.722656 C 109.671875 135.351562 125.695312 119.863281 133.683594 114.839844 C 139.988281 110.875 142.234375 108.808594 140.230469 108.808594 C 138.917969 108.808594 129.050781 114.804688 124.199219 118.550781 C 121.402344 120.710938 116.421875 125.28125 113.136719 128.703125 C 106.074219 136.050781 104.398438 135.089844 111.003906 127.484375 C 116.230469 121.46875 123.914062 114.996094 132.292969 109.539062 C 137.523438 106.132812 139.359375 104.183594 137.328125 104.183594 C 136.101562 104.183594 125.953125 110.515625 120.753906 114.523438 C 118.09375 116.570312 113.210938 121.121094 109.902344 124.628906 C 106.589844 128.136719 103.445312 131.007812 102.910156 131.007812 C 99.703125 131.007812 113.378906 116.25 123.703125 108.566406 C 131.679688 102.628906 138.816406 98.738281 148.21875 95.199219 L 154.222656 92.9375 L 155.769531 94.847656 C 158.382812 98.074219 161.121094 98.527344 172.378906 97.597656 C 203.640625 95.023438 232.765625 106.226562 253.613281 128.851562 C 263.882812 139.996094 270.050781 154.308594 266.230469 158.132812 C 264.203125 160.160156 262.441406 160.09375 260.265625 157.917969 Z M 141.777344 141.71875 C 145.851562 137.246094 154.679688 132.03125 162.445312 129.507812 C 172.945312 126.097656 186.375 125.902344 196.355469 129.011719 C 202.871094 131.042969 213.550781 136.320312 212.753906 137.117188 C 212.554688 137.316406 209.730469 136.398438 206.476562 135.078125 C 186.828125 127.09375 162.367188 129.089844 146.167969 140.003906 C 139.984375 144.167969 139.304688 144.433594 141.777344 141.71875 Z M 141.777344 141.71875 " fill-opacity="1" fill-rule="nonzero"/></g><g transform="matrix(1, 0, 0, 1, 41, 127)"><g clip-path="url(#80d0556ef4)"><g fill="#795b4b" fill-opacity="1"><g transform="translate(1.741878, 74.166914)"><g><path d="M 16.816406 4.082031 C 27.015625 4.082031 33.347656 -1.898438 33.347656 -6.894531 C 33.347656 -16.253906 15.550781 -14.84375 15.550781 -22.375 C 15.550781 -28.707031 27.015625 -40.316406 35.460938 -40.316406 C 38.0625 -40.316406 39.117188 -39.257812 39.117188 -37.710938 C 39.117188 -33.84375 32.785156 -26.875 27.367188 -24.414062 C 28.777344 -23.21875 30.324219 -22.726562 31.941406 -22.726562 C 37.992188 -22.726562 44.535156 -29.972656 44.535156 -35.53125 C 44.535156 -40.597656 39.046875 -44.886719 32.292969 -44.886719 C 21.246094 -44.886719 8.441406 -33.066406 8.441406 -23.570312 C 8.441406 -12.59375 27.226562 -10.90625 27.226562 -4.925781 C 27.226562 -2.742188 24.835938 -1.757812 21.53125 -1.757812 C 14.703125 -1.757812 6.121094 -5.277344 4.363281 -10.835938 C 2.460938 -9.429688 1.40625 -7.667969 1.40625 -5.417969 C 1.40625 0.351562 8.722656 4.082031 16.816406 4.082031 Z M 16.816406 4.082031 "/></g></g></g><g fill="#795b4b" fill-opacity="1"><g transform="translate(37.622947, 74.166914)"><g><path d="M 11.398438 2.320312 C 17.800781 2.320312 25.75 -3.378906 34.898438 -16.816406 C 34.898438 -17.800781 33.632812 -18.644531 32.925781 -18.644531 C 26.382812 -8.863281 17.730469 -2.742188 12.59375 -2.742188 C 10.203125 -2.742188 9.21875 -4.292969 9.21875 -6.613281 C 9.21875 -13.367188 17.660156 -26.875 22.234375 -26.875 C 23.007812 -26.875 23.359375 -26.382812 23.359375 -25.609375 C 23.359375 -23.148438 20.332031 -18.011719 17.800781 -15.550781 C 18.433594 -14.914062 19.136719 -14.632812 19.910156 -14.632812 C 23.5 -14.632812 27.863281 -20.683594 27.863281 -24.625 C 27.863281 -27.15625 25.257812 -31.097656 20.964844 -31.097656 C 12.59375 -31.097656 2.109375 -15.269531 2.109375 -6.824219 C 2.109375 -1.335938 6.332031 2.320312 11.398438 2.320312 Z M 11.398438 2.320312 "/></g></g></g><g fill="#795b4b" fill-opacity="1"><g transform="translate(63.161829, 74.166914)"><g><path d="M 6.191406 2.109375 C 6.824219 2.109375 7.316406 1.96875 7.316406 1.546875 C 11.679688 -9.921875 23.640625 -24.484375 26.523438 -24.484375 C 26.734375 -24.484375 26.875 -24.34375 26.875 -24.132812 C 26.875 -22.164062 19.066406 -12.945312 19.066406 -6.824219 C 19.066406 -2.8125 22.09375 0.5625 25.046875 0.5625 C 29.058594 0.5625 36.09375 -5.628906 43.269531 -16.816406 C 43.269531 -17.800781 42.003906 -18.644531 41.300781 -18.644531 C 35.742188 -10.554688 29.902344 -5.347656 27.582031 -5.347656 C 26.875 -5.347656 26.523438 -5.769531 26.523438 -6.683594 C 26.523438 -10.34375 32.644531 -20.753906 34.898438 -23.78125 C 35.25 -23.992188 35.390625 -24.414062 35.390625 -24.90625 C 35.390625 -26.875 32.996094 -29.902344 28.988281 -29.902344 C 24.765625 -29.902344 15.761719 -19.558594 10.484375 -10.835938 L 10.0625 -11.046875 C 14.421875 -22.867188 24.554688 -40.246094 26.523438 -40.246094 C 26.804688 -40.386719 26.945312 -40.738281 26.945312 -41.019531 C 26.945312 -42.355469 24.484375 -44.394531 22.445312 -44.394531 C 18.785156 -44.394531 1.195312 -10.976562 1.195312 -2.601562 C 1.195312 0.421875 4.433594 2.109375 6.191406 2.109375 Z M 6.191406 2.109375 "/></g></g></g><g fill="#795b4b" fill-opacity="1"><g transform="translate(97.072964, 74.166914)"><g><path d="M 32.925781 -18.644531 C 26.171875 -8.652344 17.308594 -2.953125 12.453125 -2.953125 C 10.132812 -2.953125 9.148438 -4.433594 9.148438 -6.332031 L 9.148438 -6.542969 C 17.589844 -9.003906 27.652344 -19.207031 27.652344 -25.046875 C 27.652344 -28.214844 24.695312 -31.097656 21.175781 -31.097656 C 12.875 -31.097656 2.109375 -15.054688 2.109375 -6.542969 C 2.109375 -1.40625 6.121094 2.320312 11.1875 2.320312 C 17.589844 2.320312 25.46875 -2.8125 34.898438 -16.816406 C 34.898438 -17.800781 33.632812 -18.644531 32.925781 -18.644531 Z M 22.515625 -26.3125 C 23.359375 -26.3125 23.710938 -25.890625 23.710938 -25.117188 C 23.710938 -21.671875 15.691406 -12.242188 9.851562 -10.132812 C 11.960938 -17.027344 18.714844 -26.3125 22.515625 -26.3125 Z M 22.515625 -26.3125 "/></g></g></g><g fill="#795b4b" fill-opacity="1"><g transform="translate(122.611846, 74.166914)"><g><path d="M 0.984375 14.773438 C 1.96875 14.773438 2.671875 14.421875 2.671875 13.929688 C 2.671875 13.789062 2.601562 13.648438 2.460938 13.4375 C 2.460938 10.203125 4.433594 4.011719 7.035156 -2.742188 C 7.597656 -0.351562 10.484375 2.179688 13.367188 2.179688 C 21.246094 2.179688 33.347656 -12.664062 33.347656 -22.585938 C 33.347656 -28.144531 29.128906 -30.394531 27.367188 -30.394531 C 24.273438 -30.394531 17.589844 -22.375 13.15625 -15.902344 L 12.804688 -16.183594 C 16.535156 -24.414062 19.769531 -29.199219 20.894531 -29.691406 C 21.175781 -29.691406 21.390625 -29.902344 21.390625 -30.324219 C 21.390625 -31.308594 19.488281 -33.417969 17.308594 -33.417969 C 12.804688 -33.417969 -3.871094 3.378906 -3.871094 10.132812 C -3.871094 13.4375 -0.914062 14.773438 0.984375 14.773438 Z M 12.03125 -3.023438 C 10.765625 -3.023438 9.074219 -3.941406 8.300781 -5.277344 C 14.421875 -15.972656 24.765625 -25.679688 26.945312 -25.679688 C 27.367188 -25.679688 27.582031 -25.328125 27.582031 -24.695312 C 27.582031 -20.191406 18.714844 -3.023438 12.03125 -3.023438 Z M 12.03125 -3.023438 "/></g></g></g><g fill="#795b4b" fill-opacity="1"><g transform="translate(153.497714, 74.166914)"><g><path d="M 6.191406 2.109375 C 6.824219 2.109375 7.316406 1.96875 7.316406 1.546875 C 11.679688 -9.921875 23.640625 -24.484375 26.523438 -24.484375 C 26.734375 -24.484375 26.875 -24.34375 26.875 -24.132812 C 26.875 -22.164062 19.066406 -12.945312 19.066406 -6.824219 C 19.066406 -2.8125 22.09375 0.5625 25.046875 0.5625 C 29.058594 0.5625 36.09375 -5.628906 43.269531 -16.816406 C 43.269531 -17.800781 42.003906 -18.644531 41.300781 -18.644531 C 35.742188 -10.554688 29.902344 -5.347656 27.582031 -5.347656 C 26.875 -5.347656 26.523438 -5.769531 26.523438 -6.683594 C 26.523438 -10.34375 32.644531 -20.753906 34.898438 -23.78125 C 35.25 -23.992188 35.390625 -24.414062 35.390625 -24.90625 C 35.390625 -26.875 32.996094 -29.902344 28.988281 -29.902344 C 24.765625 -29.902344 15.761719 -19.558594 10.484375 -10.835938 L 10.0625 -11.046875 C 14.421875 -22.867188 24.554688 -40.246094 26.523438 -40.246094 C 26.804688 -40.386719 26.945312 -40.738281 26.945312 -41.019531 C 26.945312 -42.355469 24.484375 -44.394531 22.445312 -44.394531 C 18.785156 -44.394531 1.195312 -10.976562 1.195312 -2.601562 C 1.195312 0.421875 4.433594 2.109375 6.191406 2.109375 Z M 6.191406 2.109375 "/></g></g></g><g fill="#795b4b" fill-opacity="1"><g transform="translate(187.40885, 74.166914)"><g><path d="M 20.191406 -31.589844 C 21.105469 -33.5625 24.273438 -38.976562 27.296875 -40.808594 C 27.511719 -40.878906 27.652344 -41.019531 27.652344 -41.230469 C 27.652344 -42.214844 25.257812 -44.464844 22.65625 -44.464844 C 19.628906 -44.464844 16.886719 -39.257812 16.886719 -36.304688 C 16.886719 -32.996094 19.136719 -31.449219 20.191406 -31.589844 Z M 8.722656 1.6875 C 14.28125 1.6875 22.375 -12.03125 25.46875 -16.816406 C 25.46875 -17.800781 24.203125 -18.644531 23.5 -18.644531 C 17.449219 -9.640625 13.296875 -4.152344 10.695312 -4.152344 C 9.851562 -4.152344 9.5 -4.925781 9.5 -5.980469 C 9.5 -10.765625 15.621094 -23.007812 18.222656 -24.414062 C 18.503906 -24.625 18.574219 -24.835938 18.574219 -25.117188 C 18.574219 -26.59375 16.253906 -28.496094 13.71875 -28.496094 C 11.046875 -28.496094 2.320312 -12.453125 2.320312 -5.628906 C 2.320312 -1.195312 6.121094 1.6875 8.722656 1.6875 Z M 8.722656 1.6875 "/></g></g></g><g fill="#795b4b" fill-opacity="1"><g transform="translate(203.520165, 74.166914)"><g><path d="M 6.050781 2.109375 C 6.753906 2.109375 7.175781 1.96875 7.246094 1.546875 C 11.539062 -9.921875 23.78125 -24.484375 26.664062 -24.484375 C 26.945312 -24.484375 27.085938 -24.34375 27.085938 -24.132812 C 27.085938 -22.234375 19.136719 -13.015625 19.136719 -6.824219 C 19.136719 -2.8125 22.234375 0.5625 25.1875 0.5625 C 29.199219 0.5625 36.234375 -5.628906 43.269531 -16.816406 C 43.269531 -17.800781 42.003906 -18.644531 41.300781 -18.644531 C 35.882812 -10.625 30.042969 -5.347656 27.722656 -5.347656 C 27.015625 -5.347656 26.664062 -5.769531 26.664062 -6.683594 C 26.664062 -10.34375 32.785156 -20.753906 35.109375 -23.78125 C 35.460938 -23.992188 35.53125 -24.414062 35.53125 -24.90625 C 35.53125 -26.875 33.207031 -29.902344 29.199219 -29.902344 C 24.695312 -29.902344 14.5625 -17.730469 9.5 -8.582031 L 9.003906 -8.722656 C 11.679688 -16.183594 17.027344 -25.539062 18.011719 -25.539062 C 18.222656 -25.679688 18.363281 -25.960938 18.363281 -26.171875 C 18.363281 -27.511719 16.042969 -29.691406 13.929688 -29.691406 C 10.414062 -29.691406 1.054688 -7.878906 1.054688 -2.601562 C 1.054688 0.421875 4.292969 2.109375 6.050781 2.109375 Z M 6.050781 2.109375 "/></g></g></g><g fill="#795b4b" fill-opacity="1"><g transform="translate(237.4313, 74.166914)"><g><path d="M 37.21875 -16.816406 C 37.21875 -17.800781 35.953125 -18.644531 35.25 -18.644531 C 31.730469 -13.648438 28.285156 -11.257812 25.117188 -10.132812 C 27.582031 -14.914062 29.199219 -19.910156 29.199219 -23.148438 C 29.199219 -27.863281 25.820312 -31.378906 22.164062 -31.378906 C 19.769531 -31.378906 17.449219 -29.832031 15.480469 -27.652344 C 10.34375 -25.820312 2.460938 -14.28125 2.460938 -6.894531 C 2.460938 -0.492188 8.300781 2.53125 11.679688 2.53125 C 15.339844 2.53125 19.207031 -0.984375 22.375 -5.558594 C 26.59375 -6.472656 32.292969 -9.710938 37.21875 -16.816406 Z M 23.640625 -24.625 C 23.640625 -20.894531 21.035156 -14.421875 17.941406 -9.289062 C 13.578125 -9.640625 11.960938 -11.960938 11.960938 -14.914062 L 11.960938 -15.125 C 13.789062 -19.066406 16.464844 -22.445312 19.417969 -22.9375 C 19.910156 -22.726562 20.121094 -23.148438 20.121094 -23.851562 C 20.121094 -24.695312 19.769531 -25.890625 18.996094 -26.804688 C 19.839844 -27.296875 20.683594 -27.582031 21.460938 -27.582031 C 23.007812 -27.582031 23.640625 -26.453125 23.640625 -24.625 Z M 10.695312 -1.335938 C 9.640625 -1.335938 9.148438 -2.53125 9.148438 -4.433594 C 9.148438 -5.980469 9.5 -7.949219 10.0625 -10.132812 C 11.328125 -8.089844 13.648438 -6.753906 15.902344 -5.980469 C 13.929688 -3.238281 12.03125 -1.335938 10.695312 -1.335938 Z M 10.695312 -1.335938 "/></g></g></g><g fill="#795b4b" fill-opacity="1"><g transform="translate(265.291901, 74.166914)"><g><path d="M 13.789062 -30.605469 C 16.886719 -30.605469 24.554688 -38.835938 24.554688 -42.707031 C 24.554688 -44.324219 22.164062 -45.519531 20.824219 -45.519531 C 20.472656 -45.519531 20.191406 -45.449219 20.121094 -45.238281 C 19.136719 -41.019531 14.632812 -33.5625 12.734375 -31.238281 C 12.945312 -30.816406 13.296875 -30.605469 13.789062 -30.605469 Z M 13.789062 -30.605469 "/></g></g></g><g fill="#795b4b" fill-opacity="1"><g transform="translate(278.237234, 74.166914)"><g><path d="M 32.785156 -16.816406 C 32.785156 -17.800781 31.519531 -18.644531 30.816406 -18.644531 C 27.511719 -14.070312 24.0625 -11.890625 20.402344 -11.046875 L 20.402344 -11.960938 C 20.402344 -19.066406 20.894531 -27.015625 24.90625 -29.480469 C 23.429688 -32.222656 21.460938 -33.417969 19.488281 -33.417969 C 17.378906 -33.417969 15.410156 -32.152344 14.28125 -29.902344 C 13.507812 -28.425781 8.441406 -20.261719 7.386719 -18.644531 C 7.386719 -17.730469 8.511719 -16.816406 9.359375 -16.816406 C 9.992188 -17.871094 12.523438 -21.742188 14.632812 -24.90625 L 15.054688 -24.695312 C 14.5625 -22.09375 13.789062 -16.886719 13.507812 -10.765625 C 8.652344 -11.328125 5.417969 -13.15625 3.800781 -13.15625 C 1.6875 -13.15625 0.210938 -11.75 0.210938 -9.78125 C 0.210938 -4.785156 8.371094 2.601562 14 2.601562 C 17.660156 2.601562 20.472656 -0.421875 20.472656 -4.644531 L 20.472656 -7.738281 C 24.765625 -8.863281 29.058594 -11.679688 32.785156 -16.816406 Z M 11.117188 -2.8125 C 9.003906 -2.8125 5.066406 -5.628906 3.023438 -9.289062 C 5.558594 -8.652344 9.5 -7.457031 13.4375 -7.175781 L 13.4375 -6.542969 C 13.4375 -4.011719 12.664062 -2.8125 11.117188 -2.8125 Z M 11.117188 -2.8125 "/></g></g></g></g></g><g transform="matrix(1, 0, 0, 1, 138, 220)"><g clip-path="url(#753b512e8a)"><g fill="#795b4b" fill-opacity="1"><g transform="translate(0.590653, 14.667707)"><g><path d="M 1.28125 0 L 1.28125 -9.859375 L 3.234375 -9.859375 L 3.234375 -5.828125 L 3.453125 -5.828125 L 6.734375 -9.859375 L 8.734375 -9.859375 L 8.734375 -9.6875 L 5.109375 -5.203125 L 9.109375 -0.171875 L 9.109375 0 L 6.90625 0 L 3.453125 -4.25 L 3.234375 -4.25 L 3.234375 0 Z M 1.28125 0 "/></g></g></g><g fill="#795b4b" fill-opacity="1"><g transform="translate(15.730693, 14.667707)"><g><path d="M 3.234375 0 L 1.28125 0 L 1.28125 -9.859375 L 3.234375 -9.859375 Z M 3.234375 0 "/></g></g></g><g fill="#795b4b" fill-opacity="1"><g transform="translate(26.282321, 14.667707)"><g><path d="M 7.90625 -9.859375 L 7.90625 -8.21875 L 5.0625 -8.21875 L 5.0625 0 L 3.109375 0 L 3.109375 -8.21875 L 0.265625 -8.21875 L 0.265625 -9.859375 Z M 7.90625 -9.859375 "/></g></g></g><g fill="#795b4b" fill-opacity="1"><g transform="translate(40.485814, 14.667707)"><g><path d="M 5.390625 0.140625 C 4.484375 0.140625 3.679688 -0.046875 2.984375 -0.421875 C 2.296875 -0.796875 1.753906 -1.363281 1.359375 -2.125 C 0.972656 -2.882812 0.78125 -3.820312 0.78125 -4.9375 C 0.78125 -6.039062 0.972656 -6.972656 1.359375 -7.734375 C 1.753906 -8.492188 2.296875 -9.0625 2.984375 -9.4375 C 3.679688 -9.8125 4.484375 -10 5.390625 -10 C 6.335938 -10 7.140625 -9.8125 7.796875 -9.4375 C 8.460938 -9.070312 8.9375 -8.507812 9.21875 -7.75 L 7.796875 -6.875 L 7.640625 -6.890625 C 7.421875 -7.398438 7.128906 -7.765625 6.765625 -7.984375 C 6.410156 -8.210938 5.953125 -8.328125 5.390625 -8.328125 C 4.566406 -8.328125 3.925781 -8.054688 3.46875 -7.515625 C 3.007812 -6.972656 2.78125 -6.113281 2.78125 -4.9375 C 2.78125 -3.757812 3.007812 -2.898438 3.46875 -2.359375 C 3.925781 -1.816406 4.566406 -1.546875 5.390625 -1.546875 C 6.671875 -1.546875 7.457031 -2.164062 7.75 -3.40625 L 7.90625 -3.40625 L 9.34375 -2.65625 C 9.070312 -1.726562 8.609375 -1.03125 7.953125 -0.5625 C 7.304688 -0.09375 6.453125 0.140625 5.390625 0.140625 Z M 5.390625 0.140625 "/></g></g></g><g fill="#795b4b" fill-opacity="1"><g transform="translate(56.185087, 14.667707)"><g><path d="M 7.640625 -6.15625 L 7.640625 -9.859375 L 9.59375 -9.859375 L 9.59375 0 L 7.640625 0 L 7.640625 -4.484375 L 3.234375 -4.484375 L 3.234375 0 L 1.28125 0 L 1.28125 -9.859375 L 3.234375 -9.859375 L 3.234375 -6.15625 Z M 7.640625 -6.15625 "/></g></g></g><g fill="#795b4b" fill-opacity="1"><g transform="translate(73.090419, 14.667707)"><g><path d="M 3.234375 -4.328125 L 3.234375 -1.625 L 7.9375 -1.625 L 7.9375 0 L 1.28125 0 L 1.28125 -9.859375 L 7.828125 -9.859375 L 7.828125 -8.234375 L 3.234375 -8.234375 L 3.234375 -5.921875 L 7.25 -5.921875 L 7.25 -4.328125 Z M 3.234375 -4.328125 "/></g></g></g><g fill="#795b4b" fill-opacity="1"><g transform="translate(87.59711, 14.667707)"><g><path d="M 3.171875 0 L 1.28125 0 L 1.28125 -9.859375 L 3.515625 -9.859375 L 7.46875 -3.5 L 7.640625 -3.53125 L 7.640625 -9.859375 L 9.515625 -9.859375 L 9.515625 0 L 7.53125 0 L 3.34375 -6.78125 L 3.171875 -6.765625 Z M 3.171875 0 "/></g></g></g></g></g></svg>